<mxfile host="app.diagrams.net" modified="2022-10-17T01:09:28.344Z" agent="5.0 (Windows NT 10.0; Win64; x64) AppleWebKit/537.36 (KHTML, like Gecko) Chrome/100.0.4896.60 Safari/537.36" etag="kF1P40iQE0uxl18Csp_o" version="20.3.7" type="github">
  <diagram id="9KE-d2-281myX6TM_MZf" name="第 1 页">
    <mxGraphModel dx="1422" dy="744" grid="0" gridSize="10" guides="1" tooltips="1" connect="1" arrows="1" fold="1" page="1" pageScale="1" pageWidth="827" pageHeight="1169" math="0" shadow="0">
      <root>
        <mxCell id="0" />
        <mxCell id="1" parent="0" />
        <mxCell id="PtvXf7z1myprhatd6yFj-12" style="edgeStyle=orthogonalEdgeStyle;rounded=0;orthogonalLoop=1;jettySize=auto;html=1;entryX=0.188;entryY=0;entryDx=0;entryDy=0;entryPerimeter=0;" edge="1" parent="1" source="PtvXf7z1myprhatd6yFj-1" target="PtvXf7z1myprhatd6yFj-2">
          <mxGeometry relative="1" as="geometry" />
        </mxCell>
        <mxCell id="PtvXf7z1myprhatd6yFj-1" value="APP" style="rounded=0;whiteSpace=wrap;html=1;fillColor=#ffe6cc;strokeColor=#d79b00;" vertex="1" parent="1">
          <mxGeometry x="200" y="120" width="120" height="40" as="geometry" />
        </mxCell>
        <mxCell id="PtvXf7z1myprhatd6yFj-14" style="edgeStyle=orthogonalEdgeStyle;rounded=0;orthogonalLoop=1;jettySize=auto;html=1;exitX=0.5;exitY=1;exitDx=0;exitDy=0;entryX=0.5;entryY=0;entryDx=0;entryDy=0;" edge="1" parent="1" source="PtvXf7z1myprhatd6yFj-2" target="PtvXf7z1myprhatd6yFj-4">
          <mxGeometry relative="1" as="geometry" />
        </mxCell>
        <mxCell id="PtvXf7z1myprhatd6yFj-2" value="ALSA-LIB" style="rounded=0;whiteSpace=wrap;html=1;fillColor=#ffe6cc;strokeColor=#d79b00;" vertex="1" parent="1">
          <mxGeometry x="200" y="200" width="320" height="40" as="geometry" />
        </mxCell>
        <mxCell id="PtvXf7z1myprhatd6yFj-13" style="edgeStyle=orthogonalEdgeStyle;rounded=0;orthogonalLoop=1;jettySize=auto;html=1;exitX=0.5;exitY=1;exitDx=0;exitDy=0;entryX=0.816;entryY=-0.05;entryDx=0;entryDy=0;entryPerimeter=0;" edge="1" parent="1" source="PtvXf7z1myprhatd6yFj-3" target="PtvXf7z1myprhatd6yFj-2">
          <mxGeometry relative="1" as="geometry" />
        </mxCell>
        <mxCell id="PtvXf7z1myprhatd6yFj-3" value="APP" style="rounded=0;whiteSpace=wrap;html=1;fillColor=#ffe6cc;strokeColor=#d79b00;" vertex="1" parent="1">
          <mxGeometry x="400" y="120" width="120" height="40" as="geometry" />
        </mxCell>
        <mxCell id="PtvXf7z1myprhatd6yFj-4" value="ASoC" style="rounded=0;whiteSpace=wrap;html=1;fillColor=#f8cecc;strokeColor=#b85450;" vertex="1" parent="1">
          <mxGeometry x="200" y="280" width="320" height="20" as="geometry" />
        </mxCell>
        <mxCell id="PtvXf7z1myprhatd6yFj-15" style="edgeStyle=orthogonalEdgeStyle;rounded=0;orthogonalLoop=1;jettySize=auto;html=1;exitX=0.5;exitY=1;exitDx=0;exitDy=0;entryX=0.5;entryY=0;entryDx=0;entryDy=0;" edge="1" parent="1" source="PtvXf7z1myprhatd6yFj-5" target="PtvXf7z1myprhatd6yFj-6">
          <mxGeometry relative="1" as="geometry" />
        </mxCell>
        <mxCell id="PtvXf7z1myprhatd6yFj-5" value="ALSA Driver" style="rounded=0;whiteSpace=wrap;html=1;fillColor=#f8cecc;strokeColor=#b85450;" vertex="1" parent="1">
          <mxGeometry x="200" y="320" width="320" height="40" as="geometry" />
        </mxCell>
        <mxCell id="PtvXf7z1myprhatd6yFj-6" value="Hardware" style="rounded=0;whiteSpace=wrap;html=1;fillColor=#e1d5e7;strokeColor=#9673a6;" vertex="1" parent="1">
          <mxGeometry x="200" y="400" width="320" height="40" as="geometry" />
        </mxCell>
        <mxCell id="PtvXf7z1myprhatd6yFj-7" value="" style="line;strokeWidth=2;html=1;" vertex="1" parent="1">
          <mxGeometry x="160" y="260" width="400" height="10" as="geometry" />
        </mxCell>
        <mxCell id="PtvXf7z1myprhatd6yFj-8" value="" style="line;strokeWidth=2;html=1;" vertex="1" parent="1">
          <mxGeometry x="160" y="380" width="400" height="10" as="geometry" />
        </mxCell>
        <mxCell id="PtvXf7z1myprhatd6yFj-9" value="用户空间" style="text;html=1;align=center;verticalAlign=middle;resizable=0;points=[];autosize=1;strokeColor=none;fillColor=none;" vertex="1" parent="1">
          <mxGeometry x="120" y="230" width="70" height="30" as="geometry" />
        </mxCell>
        <mxCell id="PtvXf7z1myprhatd6yFj-10" value="内核空间" style="text;html=1;align=center;verticalAlign=middle;resizable=0;points=[];autosize=1;strokeColor=none;fillColor=none;" vertex="1" parent="1">
          <mxGeometry x="120" y="270" width="70" height="30" as="geometry" />
        </mxCell>
        <mxCell id="PtvXf7z1myprhatd6yFj-11" value="硬件" style="text;html=1;align=center;verticalAlign=middle;resizable=0;points=[];autosize=1;strokeColor=none;fillColor=none;" vertex="1" parent="1">
          <mxGeometry x="130" y="390" width="50" height="30" as="geometry" />
        </mxCell>
      </root>
    </mxGraphModel>
  </diagram>
</mxfile>
